<svg width="262" height="63" viewBox="0 0 262 63" fill="none" xmlns="http://www.w3.org/2000/svg">
<mask id="mask0_12_5" style="mask-type:luminance" maskUnits="userSpaceOnUse" x="234" y="8" width="18" height="18">
<path d="M234.503 8H251.836V25.3333H234.503V8Z" fill="white"/>
</mask>
<g mask="url(#mask0_12_5)">
<mask id="mask1_12_5" style="mask-type:luminance" maskUnits="userSpaceOnUse" x="231" y="0" width="29" height="29">
<path d="M231.404 10.9531L243.154 0.09375L259.44 17.7188L247.69 28.5781L231.404 10.9531Z" fill="white"/>
</mask>
<g mask="url(#mask1_12_5)">
<mask id="mask2_12_5" style="mask-type:luminance" maskUnits="userSpaceOnUse" x="231" y="0" width="29" height="29">
<path d="M231.404 10.9531L243.154 0.09375L259.44 17.7188L247.69 28.5781L231.404 10.9531Z" fill="white"/>
</mask>
<g mask="url(#mask2_12_5)">
<path d="M251.404 8.99999L237.102 8.36457C234.336 8.23957 233.873 13.625 237.144 13.7135L246.045 13.9531L245.362 22.9062C245.159 25.6354 250.477 25.9219 250.628 23.151L251.404 8.99999Z" fill="white"/>
</g>
</g>
</g>
<mask id="mask3_12_5" style="mask-type:luminance" maskUnits="userSpaceOnUse" x="242" y="0" width="20" height="18">
<path d="M242.503 0H261.17V17.3333H242.503V0Z" fill="white"/>
</mask>
<g mask="url(#mask3_12_5)">
<mask id="mask4_12_5" style="mask-type:luminance" maskUnits="userSpaceOnUse" x="239" y="-8" width="29" height="29">
<path d="M239.867 3.13019L251.617 -7.72919L267.909 9.89581L256.159 20.7552L239.867 3.13019Z" fill="white"/>
</mask>
<g mask="url(#mask4_12_5)">
<mask id="mask5_12_5" style="mask-type:luminance" maskUnits="userSpaceOnUse" x="239" y="-8" width="29" height="29">
<path d="M239.867 3.13019L251.617 -7.72919L267.909 9.89581L256.159 20.7552L239.867 3.13019Z" fill="white"/>
</mask>
<g mask="url(#mask5_12_5)">
<path d="M259.867 1.17708L245.565 0.536456C242.805 0.416664 242.336 5.79687 245.612 5.88541L254.508 6.125L253.831 15.0833C253.623 17.8073 258.94 18.099 259.091 15.3281L259.867 1.17708Z" fill="white"/>
</g>
</g>
</g>
<path d="M33.4167 18.3541C36.1771 18.3541 38.6042 18.9114 40.6875 20.0208C42.7708 21.1198 44.3646 22.6666 45.4792 24.6666C46.6042 26.6562 47.1667 28.927 47.1667 31.4791C47.1667 34.0208 46.5938 36.2916 45.4583 38.2916C44.3333 40.2812 42.7292 41.8437 40.6458 42.9791C38.5625 44.1041 36.151 44.6666 33.4167 44.6666H23V18.3541H33.4167ZM32.8542 38.2083C35.0052 38.2083 36.6875 37.625 37.8958 36.4583C39.1146 35.2916 39.7292 33.6354 39.7292 31.4791C39.7292 29.3281 39.1146 27.6614 37.8958 26.4791C36.6875 25.2864 35.0052 24.6875 32.8542 24.6875H30.3333V38.2083H32.8542Z" fill="white"/>
<path d="M56.3509 24.2083V28.5H64.7467V34.0625H56.3509V38.8125H65.8717V44.6666H49.0176V18.3541H65.8717V24.2083H56.3509Z" fill="white"/>
<path d="M77.9923 44.9375C74.935 44.9375 72.4194 44.2083 70.4507 42.75C68.4767 41.2917 67.4194 39.2083 67.284 36.5H75.0757C75.159 37.4167 75.435 38.0938 75.909 38.5208C76.3777 38.9375 76.9819 39.1458 77.7215 39.1458C78.3986 39.1458 78.9559 38.9792 79.3882 38.6458C79.8309 38.3021 80.0548 37.8281 80.0548 37.2292C80.0548 36.4688 79.6902 35.875 78.9715 35.4583C78.2475 35.0313 77.0757 34.5521 75.4507 34.0208C73.7423 33.4531 72.3517 32.9063 71.284 32.375C70.2267 31.8333 69.3048 31.0521 68.5132 30.0208C67.7319 28.9792 67.3465 27.625 67.3465 25.9583C67.3465 24.2656 67.7684 22.8229 68.6173 21.625C69.4611 20.4167 70.6277 19.5 72.1173 18.875C73.6173 18.25 75.31 17.9375 77.2007 17.9375C80.2684 17.9375 82.7111 18.6563 84.534 20.0833C86.3673 21.5156 87.3465 23.5208 87.4715 26.1042H79.5132C79.4975 25.3125 79.2527 24.724 78.784 24.3333C78.3257 23.9323 77.7319 23.7292 77.0132 23.7292C76.4715 23.7292 76.0236 23.8906 75.6798 24.2083C75.3309 24.5313 75.159 24.9896 75.159 25.5833C75.159 26.0833 75.3465 26.5156 75.7215 26.875C76.1069 27.2396 76.5861 27.5521 77.159 27.8125C77.7423 28.0781 78.5861 28.4063 79.7007 28.7917C81.3777 29.375 82.7527 29.9479 83.8257 30.5C84.909 31.0573 85.8361 31.8438 86.6173 32.8542C87.409 33.8542 87.8048 35.1354 87.8048 36.6875C87.8048 38.2448 87.409 39.6458 86.6173 40.8958C85.8361 42.1458 84.7059 43.1354 83.2215 43.8542C81.7475 44.5781 80.0027 44.9375 77.9923 44.9375Z" fill="white"/>
<path d="M109.613 18.3541V24.1666H102.592V44.6666H95.2796V24.1666H88.3213V18.3541H109.613Z" fill="white"/>
<path d="M118.241 18.3541V44.6666H110.907V18.3541H118.241Z" fill="white"/>
<path d="M145.382 44.6666H138.048L128.319 29.9583V44.6666H120.986V18.3541H128.319L138.048 33.25V18.3541H145.382V44.6666Z" fill="white"/>
<path d="M160.748 44.9375C158.29 44.9375 156.024 44.3646 153.956 43.2083C151.884 42.0417 150.248 40.4323 149.04 38.375C147.831 36.3229 147.227 34 147.227 31.4167C147.227 28.8229 147.831 26.5 149.04 24.4583C150.248 22.4063 151.884 20.8073 153.956 19.6667C156.024 18.5156 158.29 17.9375 160.748 17.9375C163.233 17.9375 165.503 18.5156 167.561 19.6667C169.613 20.8073 171.238 22.4063 172.436 24.4583C173.628 26.5 174.227 28.8229 174.227 31.4167C174.227 34 173.628 36.3229 172.436 38.375C171.238 40.4323 169.608 42.0417 167.54 43.2083C165.467 44.3646 163.206 44.9375 160.748 44.9375ZM160.748 38.125C162.608 38.125 164.081 37.5208 165.165 36.3125C166.248 35.0938 166.79 33.4583 166.79 31.4167C166.79 29.3229 166.248 27.6667 165.165 26.4583C164.081 25.25 162.608 24.6458 160.748 24.6458C158.858 24.6458 157.378 25.25 156.311 26.4583C155.238 27.6667 154.706 29.3229 154.706 31.4167C154.706 33.4896 155.238 35.125 156.311 36.3333C157.378 37.5313 158.858 38.125 160.748 38.125Z" fill="white"/>
<path d="M201.707 18.3541L192.623 44.6666H183.248L174.144 18.3541H181.978L187.957 37.3541L193.894 18.3541H201.707Z" fill="white"/>
<path d="M209.881 18.3541V44.6666H202.547V18.3541H209.881Z" fill="white"/>
<path d="M229.292 40.375H219.959L218.522 44.6666H210.834L220.438 18.3541H228.876L238.438 44.6666H230.709L229.292 40.375ZM227.459 34.7708L224.626 26.2708L221.813 34.7708H227.459Z" fill="white"/>
</svg>
