<svg width="239" height="63" viewBox="0 0 239 63" fill="none" xmlns="http://www.w3.org/2000/svg">
<mask id="mask0_1_104" style="mask-type:luminance" maskUnits="userSpaceOnUse" x="211" y="8" width="18" height="18">
<path d="M211.503 8H228.836V25.3333H211.503V8Z" fill="white"/>
</mask>
<g mask="url(#mask0_1_104)">
<mask id="mask1_1_104" style="mask-type:luminance" maskUnits="userSpaceOnUse" x="208" y="0" width="29" height="29">
<path d="M208.404 10.9531L220.154 0.09375L236.44 17.7188L224.69 28.5781L208.404 10.9531Z" fill="white"/>
</mask>
<g mask="url(#mask1_1_104)">
<mask id="mask2_1_104" style="mask-type:luminance" maskUnits="userSpaceOnUse" x="208" y="0" width="29" height="29">
<path d="M208.404 10.9531L220.154 0.09375L236.44 17.7188L224.69 28.5781L208.404 10.9531Z" fill="white"/>
</mask>
<g mask="url(#mask2_1_104)">
<path d="M228.404 8.99999L214.102 8.36457C211.336 8.23957 210.873 13.625 214.144 13.7135L223.045 13.9531L222.362 22.9062C222.159 25.6354 227.477 25.9219 227.628 23.151L228.404 8.99999Z" fill="#655DFF"/>
</g>
</g>
</g>
<mask id="mask3_1_104" style="mask-type:luminance" maskUnits="userSpaceOnUse" x="219" y="0" width="20" height="18">
<path d="M219.503 0H238.17V17.3333H219.503V0Z" fill="white"/>
</mask>
<g mask="url(#mask3_1_104)">
<mask id="mask4_1_104" style="mask-type:luminance" maskUnits="userSpaceOnUse" x="216" y="-8" width="29" height="29">
<path d="M216.867 3.13019L228.617 -7.72919L244.909 9.89581L233.159 20.7552L216.867 3.13019Z" fill="white"/>
</mask>
<g mask="url(#mask4_1_104)">
<mask id="mask5_1_104" style="mask-type:luminance" maskUnits="userSpaceOnUse" x="216" y="-8" width="29" height="29">
<path d="M216.867 3.13019L228.617 -7.72919L244.909 9.89581L233.159 20.7552L216.867 3.13019Z" fill="white"/>
</mask>
<g mask="url(#mask5_1_104)">
<path d="M236.867 1.17708L222.565 0.536456C219.805 0.416664 219.336 5.79687 222.612 5.88541L231.508 6.125L230.831 15.0833C230.623 17.8073 235.94 18.099 236.091 15.3281L236.867 1.17708Z" fill="#655DFF"/>
</g>
</g>
</g>
<path d="M10.4167 18.3541C13.1771 18.3541 15.6042 18.9114 17.6875 20.0208C19.7708 21.1198 21.3646 22.6666 22.4792 24.6666C23.6042 26.6562 24.1667 28.927 24.1667 31.4791C24.1667 34.0208 23.5938 36.2916 22.4583 38.2916C21.3333 40.2812 19.7292 41.8437 17.6458 42.9791C15.5625 44.1041 13.151 44.6666 10.4167 44.6666H0V18.3541H10.4167ZM9.85417 38.2083C12.0052 38.2083 13.6875 37.625 14.8958 36.4583C16.1146 35.2916 16.7292 33.6354 16.7292 31.4791C16.7292 29.3281 16.1146 27.6614 14.8958 26.4791C13.6875 25.2864 12.0052 24.6875 9.85417 24.6875H7.33333V38.2083H9.85417Z" fill="#131313"/>
<path d="M33.3509 24.2083V28.5H41.7467V34.0625H33.3509V38.8125H42.8717V44.6666H26.0176V18.3541H42.8717V24.2083H33.3509Z" fill="#131313"/>
<path d="M54.9923 44.9375C51.935 44.9375 49.4194 44.2083 47.4507 42.75C45.4767 41.2917 44.4194 39.2083 44.284 36.5H52.0757C52.159 37.4167 52.435 38.0938 52.909 38.5208C53.3777 38.9375 53.9819 39.1458 54.7215 39.1458C55.3986 39.1458 55.9559 38.9792 56.3882 38.6458C56.8309 38.3021 57.0548 37.8281 57.0548 37.2292C57.0548 36.4688 56.6902 35.875 55.9715 35.4583C55.2475 35.0313 54.0757 34.5521 52.4507 34.0208C50.7423 33.4531 49.3517 32.9063 48.284 32.375C47.2267 31.8333 46.3048 31.0521 45.5132 30.0208C44.7319 28.9792 44.3465 27.625 44.3465 25.9583C44.3465 24.2656 44.7684 22.8229 45.6173 21.625C46.4611 20.4167 47.6277 19.5 49.1173 18.875C50.6173 18.25 52.31 17.9375 54.2007 17.9375C57.2684 17.9375 59.7111 18.6563 61.534 20.0833C63.3673 21.5156 64.3465 23.5208 64.4715 26.1042H56.5132C56.4975 25.3125 56.2527 24.724 55.784 24.3333C55.3257 23.9323 54.7319 23.7292 54.0132 23.7292C53.4715 23.7292 53.0236 23.8906 52.6798 24.2083C52.3309 24.5313 52.159 24.9896 52.159 25.5833C52.159 26.0833 52.3465 26.5156 52.7215 26.875C53.1069 27.2396 53.5861 27.5521 54.159 27.8125C54.7423 28.0781 55.5861 28.4063 56.7007 28.7917C58.3777 29.375 59.7527 29.9479 60.8257 30.5C61.909 31.0573 62.8361 31.8438 63.6173 32.8542C64.409 33.8542 64.8048 35.1354 64.8048 36.6875C64.8048 38.2448 64.409 39.6458 63.6173 40.8958C62.8361 42.1458 61.7059 43.1354 60.2215 43.8542C58.7475 44.5781 57.0027 44.9375 54.9923 44.9375Z" fill="#131313"/>
<path d="M86.613 18.3541V24.1666H79.5921V44.6666H72.2796V24.1666H65.3213V18.3541H86.613Z" fill="#131313"/>
<path d="M95.2406 18.3541V44.6666H87.9072V18.3541H95.2406Z" fill="#131313"/>
<path d="M122.382 44.6666H115.048L105.319 29.9583V44.6666H97.9857V18.3541H105.319L115.048 33.25V18.3541H122.382V44.6666Z" fill="#131313"/>
<path d="M137.748 44.9375C135.29 44.9375 133.024 44.3646 130.956 43.2083C128.884 42.0417 127.248 40.4323 126.04 38.375C124.831 36.3229 124.227 34 124.227 31.4167C124.227 28.8229 124.831 26.5 126.04 24.4583C127.248 22.4063 128.884 20.8073 130.956 19.6667C133.024 18.5156 135.29 17.9375 137.748 17.9375C140.233 17.9375 142.503 18.5156 144.561 19.6667C146.613 20.8073 148.238 22.4063 149.436 24.4583C150.628 26.5 151.227 28.8229 151.227 31.4167C151.227 34 150.628 36.3229 149.436 38.375C148.238 40.4323 146.608 42.0417 144.54 43.2083C142.467 44.3646 140.206 44.9375 137.748 44.9375ZM137.748 38.125C139.608 38.125 141.081 37.5208 142.165 36.3125C143.248 35.0938 143.79 33.4583 143.79 31.4167C143.79 29.3229 143.248 27.6667 142.165 26.4583C141.081 25.25 139.608 24.6458 137.748 24.6458C135.858 24.6458 134.378 25.25 133.311 26.4583C132.238 27.6667 131.706 29.3229 131.706 31.4167C131.706 33.4896 132.238 35.125 133.311 36.3333C134.378 37.5313 135.858 38.125 137.748 38.125Z" fill="#131313"/>
<path d="M178.707 18.3541L169.623 44.6666H160.248L151.144 18.3541H158.978L164.957 37.3541L170.894 18.3541H178.707Z" fill="#131313"/>
<path d="M186.881 18.3541V44.6666H179.547V18.3541H186.881Z" fill="#131313"/>
<path d="M206.292 40.375H196.959L195.522 44.6666H187.834L197.438 18.3541H205.876L215.438 44.6666H207.709L206.292 40.375ZM204.459 34.7708L201.626 26.2708L198.813 34.7708H204.459Z" fill="#131313"/>
</svg>
